<?xml version="1.0" standalone="no"?><!DOCTYPE svg PUBLIC "-//W3C//DTD SVG 1.1//EN" "http://www.w3.org/Graphics/SVG/1.1/DTD/svg11.dtd"><svg t="1693990519342" class="icon" viewBox="0 0 1024 1024" version="1.1" xmlns="http://www.w3.org/2000/svg" p-id="12872" xmlns:xlink="http://www.w3.org/1999/xlink" width="32" height="32"><path d="M708.608 323.584l276.48 40.96c36.864 6.144 49.152 49.152 24.576 75.776L806.912 634.88c-10.24 10.24-14.336 24.576-12.288 38.912l45.056 276.48c6.144 36.864-32.768 63.488-63.488 45.056l-247.808-131.072c-12.288-6.144-28.672-6.144-40.96 0l-247.808 129.024c-32.768 16.384-69.632-10.24-63.488-47.104L225.28 669.696c2.048-14.336-2.048-28.672-12.288-38.912l-198.656-196.608c-26.624-24.576-12.288-69.632 24.576-75.776l276.48-38.912c14.336-2.048 26.624-10.24 32.768-24.576l124.928-249.856c16.384-32.768 63.488-32.768 77.824 0l122.88 251.904C681.984 313.344 694.272 321.536 708.608 323.584z" p-id="12873" fill="#ffffff"></path></svg>