<?xml version="1.0" standalone="no"?><!DOCTYPE svg PUBLIC "-//W3C//DTD SVG 1.1//EN" "http://www.w3.org/Graphics/SVG/1.1/DTD/svg11.dtd"><svg t="1693618018399" class="icon" viewBox="0 0 1142 1024" version="1.1" xmlns="http://www.w3.org/2000/svg" p-id="3772" id="mx_n_1693618018401" xmlns:xlink="http://www.w3.org/1999/xlink" width="35.6875" height="32"><path d="M1125.76 448L904 64a128 128 0 0 0-110.72-64H349.76a128 128 0 0 0-111.04 64L17.28 448a128 128 0 0 0 0 128l221.44 384a128 128 0 0 0 110.72 64h443.52a128 128 0 0 0 110.72-64l221.76-384a128 128 0 0 0 0.32-128z m-55.36 96l-221.76 384a64 64 0 0 1-55.36 32H349.76a64 64 0 0 1-55.36-32L72.64 544a64 64 0 0 1 0-64L294.4 96a64 64 0 0 1 55.36-32h443.2a64 64 0 0 1 55.36 32l221.76 384a64 64 0 0 1 0 64z" fill="#f507be" p-id="3773"></path><path d="M571.52 320a192 192 0 1 0 192 192 192 192 0 0 0-192-192z m0 320a128 128 0 1 1 128-128 128 128 0 0 1-128 128z" fill="#f507be" p-id="3774"></path></svg>