<?xml version="1.0" standalone="no"?><!DOCTYPE svg PUBLIC "-//W3C//DTD SVG 1.1//EN" "http://www.w3.org/Graphics/SVG/1.1/DTD/svg11.dtd"><svg t="1693894967106" class="icon" viewBox="0 0 1024 1024" version="1.1" xmlns="http://www.w3.org/2000/svg" p-id="2323" xmlns:xlink="http://www.w3.org/1999/xlink" width="32" height="32"><path d="M251.03543 428.656827 251.03543 428.656827l-99.516528 0.233314c-1.382487-0.172939-2.783393-0.280386-4.207835-0.280386-19.10615 0-34.593889 15.434527-34.593889 34.486442l-0.313132 414.095179c0 19.051915 15.488763 34.486442 34.58468 34.486442 1.880837 0 3.703345-0.186242 5.499248-0.471744l98.546434 0.038886L251.034407 428.656827 251.03543 428.656827z" p-id="2324" fill="#f507be"></path><path d="M927.384545 442.805058c-18.698874-30.063713-50.444902-46.986127-83.403548-48.279586-1.715061-0.255827-3.442402-0.436952-5.218862-0.436952l-193.047738-0.207731c13.085016-37.326117 20.23895-77.432557 20.23895-119.214149 0-27.104311-3.082198-53.476959-8.751315-78.881558l-0.511653 0.069585c-10.3006-44.499493-50.196239-77.707826-97.951893-77.707826-55.573713 0-100.621698 44.930305-100.621698 100.343359 0 3.066849 0.190335 6.083555 0.462534 9.073656-2.457981 87.681992-59.607586 161.644517-138.630361 189.29425l0 494.41653 450.558649 0.189312 0 0.208754c18.803251 0.029676 37.845956-5.01113 54.888098-15.815197 16.187681-10.263761 28.359908-24.361851 36.362162-40.301891 2.194992-3.179412 3.927449-6.759961 4.975315-10.69662l74.733075-328.990896c1.043772-3.908006 1.325182-7.823176 1.011027-11.636015C944.026574 483.397568 939.288666 461.922465 927.384545 442.805058L927.384545 442.805058z" p-id="2325" fill="#f507be"></path></svg>