<?xml version="1.0" standalone="no"?><!DOCTYPE svg PUBLIC "-//W3C//DTD SVG 1.1//EN" "http://www.w3.org/Graphics/SVG/1.1/DTD/svg11.dtd"><svg t="1693990009841" class="icon" viewBox="0 0 1024 1024" version="1.1" xmlns="http://www.w3.org/2000/svg" p-id="11752" xmlns:xlink="http://www.w3.org/1999/xlink" width="32" height="32"><path d="M215.08031147 417.17398983L215.08031147 417.17398983l-113.22769408 0.26545948c-1.57296299-0.19676615-3.1668827-0.31901696-4.78758116-0.31901696-21.73855289 0-39.36015815 17.56106183-39.36015815 39.23790735l-0.35627463 471.14829255c0 21.67684551 17.62277035 39.23790734 39.34968036 39.23790734 2.13997454 0 4.21358365-0.21190201 6.25692216-0.53673984l112.12394269 0.04424363L215.07914752 417.17398983 215.08031147 417.17398983z" fill="#ffffff" p-id="11753"></path><path d="M984.61530453 433.27153266c-21.27516331-34.20582457-57.3950885-53.45977117-94.8947035-54.93144007-1.95135829-0.29107427-3.9166885-0.49715427-5.93790521-0.49715428l-219.64542635-0.23635172c14.88784043-42.46882645 23.02742755-88.10104263 23.02742756-135.63920952 0-30.83868274-3.50685639-60.84489557-9.95705173-89.74968377l-0.58214741 0.07917227c-11.71979378-50.63053426-57.11216526-88.41423758-111.44748715-88.41423759-63.23053568 0-114.48513195 51.12070258-114.48513195 114.16844402 0 3.48939264 0.21655893 6.92173369 0.52626091 10.32380416-2.79663616 99.76262201-67.82018674 183.91553934-157.73054407 215.37479111l0 562.5361408 512.63561842 0.21539499 0 0.23751566c21.39392114 0.03376469 43.06028771-5.70155235 62.45045816-17.9941797 18.41798371-11.67787918 32.2672731-27.71837269 41.37205988-45.85459598 2.49741312-3.61746432 4.46856419-7.69133341 5.66080284-12.17037653l85.029632-374.31853056c1.18758059-4.44644238 1.50776263-8.90103581 1.15032406-13.23919929C1003.55023531 479.45678848 998.15954887 455.02289351 984.61530453 433.27153266L984.61530453 433.27153266z" fill="#ffffff" p-id="11754"></path></svg>