<?xml version="1.0" standalone="no"?><!DOCTYPE svg PUBLIC "-//W3C//DTD SVG 1.1//EN" "http://www.w3.org/Graphics/SVG/1.1/DTD/svg11.dtd"><svg t="1693984993014" class="icon" viewBox="0 0 1024 1024" version="1.1" xmlns="http://www.w3.org/2000/svg" p-id="3223" xmlns:xlink="http://www.w3.org/1999/xlink" width="32" height="32"><path d="M796.598857 705.097143a71.826286 71.826286 0 0 1-71.131428 72.484571H298.569143a71.789714 71.789714 0 0 1-71.131429-72.484571V318.866286a71.789714 71.789714 0 0 1 71.131429-72.484572h170.532571a47.542857 47.542857 0 0 1 44.580572 31.744l19.163428 53.504a9.508571 9.508571 0 0 0 8.923429 6.326857h183.698286a71.789714 71.789714 0 0 1 71.131428 72.484572v25.6a25.197714 25.197714 0 0 1-23.698286 13.824 24.868571 24.868571 0 0 1-23.515428-13.824h-0.182857v-25.6a23.917714 23.917714 0 0 0-23.698286-24.137143h-183.734857a56.978286 56.978286 0 0 1-53.504-38.144l-19.163429-53.504H298.569143a23.917714 23.917714 0 0 0-23.698286 24.173714v386.304a23.954286 23.954286 0 0 0 23.698286 24.137143h426.861714a23.917714 23.917714 0 0 0 23.698286-24.137143v-193.243428a27.282286 27.282286 0 0 1 47.542857 0z m-288.365714-267.776a20.882286 20.882286 0 0 1 20.882286 20.882286v103.606857l37.961142-33.682286a24.137143 24.137143 0 0 1 34.157715 0 21.942857 21.942857 0 0 1-4.059429 31.670857l-73.142857 63.780572a23.405714 23.405714 0 0 1-31.597714 0.365714l-71.350857-63.488a24.393143 24.393143 0 0 1-7.753143-22.893714 18.944 18.944 0 0 1 13.897143-15.945143 22.418286 22.418286 0 0 1 22.930285 3.986285l37.229715 34.304v-101.705142a20.882286 20.882286 0 0 1 20.882285-20.882286z" fill="#1296db" p-id="3224"></path></svg>