<?xml version="1.0" standalone="no"?><!DOCTYPE svg PUBLIC "-//W3C//DTD SVG 1.1//EN" "http://www.w3.org/Graphics/SVG/1.1/DTD/svg11.dtd"><svg t="1693986042935" class="icon" viewBox="0 0 1024 1024" version="1.1" xmlns="http://www.w3.org/2000/svg" p-id="8140" xmlns:xlink="http://www.w3.org/1999/xlink" width="32" height="32"><path d="M571.52 136.832a32 32 0 0 1 44.8 0.64l174.4 175.904a32 32 0 0 1-1.632 46.624L368.864 728.064a32 32 0 0 1-21.76 7.936l-155.776-3.328a32 32 0 0 1-31.328-32v-158.208a32 32 0 0 1 9.92-23.168z m42.464 514.496l239.84 4.672a32 32 0 1 1-1.248 64l-239.84-4.672a32 32 0 1 1 1.28-64zM592.96 204.8L224 556.16v113.184l112 2.4 385.312-337.472L592.96 204.8z m259.296 606.528a32 32 0 0 1 0.48 64l-628.48 4.672a32 32 0 0 1-0.48-64l628.48-4.672z" fill="#cdcdcd" p-id="8141"></path></svg>