<?xml version="1.0" standalone="no"?><!DOCTYPE svg PUBLIC "-//W3C//DTD SVG 1.1//EN" "http://www.w3.org/Graphics/SVG/1.1/DTD/svg11.dtd"><svg t="1693985309049" class="icon" viewBox="0 0 1024 1024" version="1.1" xmlns="http://www.w3.org/2000/svg" p-id="5181" xmlns:xlink="http://www.w3.org/1999/xlink" width="32" height="32"><path d="M512.042667 139.861333a370.944 370.944 0 0 0-267.52 113.493334 30.805333 30.805333 0 0 0 44.330666 42.794666A310.485333 310.485333 0 0 1 822.528 512a310.485333 310.485333 0 1 1-620.928 0 30.805333 30.805333 0 0 0-61.610667 0 372.096 372.096 0 1 0 744.106667 0 372.096 372.096 0 0 0-372.053333-372.138667z" fill="#1296db" p-id="5182"></path><path d="M512 373.333333a32 32 0 0 1 31.701333 27.648l0.298667 4.352v138.581334l95.914667-0.256a32 32 0 0 1 31.786666 27.605333l0.298667 4.352a32 32 0 0 1-27.562667 31.744l-4.352 0.298667-128 0.341333a32 32 0 0 1-31.786666-27.648l-0.298667-4.352v-170.666667a32 32 0 0 1 32-32zM379.733333 325.12a30.805333 30.805333 0 0 1-25.770666 30.378667l-5.034667 0.426666H215.893333a30.805333 30.805333 0 0 1-30.378666-25.813333l-0.426667-4.992V192a30.805333 30.805333 0 0 1 61.226667-4.992l0.426666 4.992v102.272h102.229334c15.36 0 28.032 11.221333 30.421333 25.856l0.426667 4.992z" fill="#1296db" p-id="5183"></path></svg>