<?xml version="1.0" standalone="no"?><!DOCTYPE svg PUBLIC "-//W3C//DTD SVG 1.1//EN" "http://www.w3.org/Graphics/SVG/1.1/DTD/svg11.dtd"><svg t="1693617158678" class="icon" viewBox="0 0 1024 1024" version="1.1" xmlns="http://www.w3.org/2000/svg" p-id="2494" xmlns:xlink="http://www.w3.org/1999/xlink" width="32" height="32"><path d="M512.203 104.112l120.659 244.571c7.719 15.843 22.954 27.015 40.626 29.454l269.758 39.206-195.21 190.129c-12.594 12.391-18.484 30.267-15.438 47.737l46.111 268.745-241.321-126.956c-7.719-4.062-16.453-6.297-24.985-6.297-8.736 0-17.268 2.032-24.985 6.297l-241.321 126.956 46.111-268.745c3.045-17.47-2.844-35.345-15.438-47.737l-195.21-190.332 269.758-39.206c17.47-2.438 32.703-13.612 40.626-29.454l120.254-244.365zM512.203 60.439c-7.921 0-15.843 4.062-19.907 12.391l-129.19 261.836c-3.25 6.5-9.547 11.172-16.657 12.189l-289.056 41.845c-18.078 2.642-25.392 24.985-12.189 37.781l209.225 203.741c5.076 5.076 7.516 12.391 6.297 19.5l-49.36 287.836c-2.438 14.22 8.939 25.799 21.733 25.799 3.454 0 6.907-0.813 10.361-2.642l258.383-135.693c3.25-1.625 6.703-2.438 10.157-2.438s7.11 0.813 10.157 2.438l258.587 135.894c3.454 1.828 6.907 2.642 10.361 2.642 12.797 0 24.374-11.578 21.733-25.799l-49.36-287.836c-1.219-7.11 1.219-14.422 6.297-19.5l209.225-203.741c13.203-12.797 5.89-35.142-12.189-37.781l-289.056-42.048c-7.11-1.014-13.405-5.686-16.657-12.189l-128.987-261.836c-4.266-8.327-12.189-12.391-19.907-12.391z" p-id="2495" fill="#1296db"></path><path d="M512 132.959l112.128 227.303c7.11 14.625 21.329 25.188 37.781 27.423l250.662 36.358-181.396 176.724c-11.781 11.578-17.268 28.031-14.422 44.282l42.86 249.852-224.256-118.019c-7.11-3.86-15.236-5.89-23.157-5.89-8.125 0-16.046 1.828-23.157 5.89l-224.256 118.019 42.86-249.852c2.844-16.252-2.642-32.907-14.422-44.282l-181.396-176.927 250.662-36.358c16.252-2.235 30.469-12.594 37.781-27.423l111.723-227.1zM512 92.333c-7.314 0-14.625 3.86-18.484 11.578l-120.050 243.351c-3.045 6.095-8.939 10.361-15.438 11.376l-268.745 38.797c-16.859 2.438-23.565 23.157-11.376 35.142l194.395 189.318c4.673 4.673 6.907 11.578 5.89 18.078l-45.907 267.524c-2.235 13.203 8.327 23.969 20.11 23.969 3.25 0 6.5-0.813 9.547-2.438l240.099-126.144c3.045-1.421 6.297-2.235 9.342-2.235 3.25 0 6.703 0.813 9.342 2.235l240.304 126.347c3.25 1.625 6.5 2.438 9.547 2.438 11.984 0 22.751-10.766 20.11-23.969l-45.094-267.524c-1.219-6.703 1.219-13.405 5.89-18.078l194.395-189.318c12.189-11.984 5.484-32.703-11.376-35.142l-268.745-38.999c-6.703-1.014-12.391-5.281-15.438-11.376l-119.847-243.351c-3.86-7.921-11.172-11.578-18.484-11.578z" p-id="2496" fill="#1296db"></path></svg>